<svg version="1.2" xmlns="http://www.w3.org/2000/svg" viewBox="0 0 172 52" width="172" height="52"><style>.a{fill:#582370}</style><path fill-rule="evenodd" class="a" d="m15.1 0.2q3.8 0.6 5.9 2.5c1.5 1.5 2.1 3.1 2.3 5.8 0 0.6 0.1 3.7 0.1 6.8 0 5.4 0 5.8 0.1 6.3 0.2 0.9 0.6 1.7 1.4 2.8 0.8 1.2 0.9 1.6 0.4 2.1-0.4 0.3-3.7 3.2-4 3.4-0.6 0.5-1.1 0.4-1.6 0-0.8-0.7-1.7-1.7-2.5-2.8l-0.3-0.5-0.8 0.7c-1.9 1.8-3.3 2.6-5.4 2.9-0.8 0.2-3 0.3-3.8 0.2-1.9-0.3-3.4-1-4.5-2.2-1.5-1.5-2.2-3.5-2.2-6.1q0-4 2.6-6.6c1.9-1.8 4.4-2.8 8.6-3.4 0.9-0.1 4.1-0.5 4.3-0.5 0.2 0 0.1-2.6 0-3.2-0.3-1.7-1.6-2.6-3.5-2.6-2 0-3.5 1-4 2.7-0.4 1.1-0.6 1.4-1.2 1.4-0.6 0-5.2-0.6-5.3-0.6-0.7-0.4-0.7-0.9-0.2-2.5 0.5-1.4 1.2-2.6 2.3-3.6 0.7-0.7 1.3-1.2 2.4-1.7 1.5-0.7 3.4-1.2 5.6-1.4 0.7-0.1 2.6 0 3.3 0.1zm69.5 0c0.9 0.2 2.2 0.5 2.9 0.8 1.3 0.4 2.1 1 3 1.8 1.2 1.2 1.8 2.4 2.1 4.4 0.1 0.6 0.1 1.5 0.2 7.4 0 7.7 0 7.1 0.6 8.4 0.2 0.4 0.6 1 0.9 1.5 0.8 1 0.9 1.3 0.6 1.8-0.1 0.1-0.7 0.7-1.4 1.2-0.7 0.6-1.7 1.5-2.1 1.9-1.4 1.1-1.6 1.1-2.8 0-0.7-0.7-1.3-1.4-1.9-2.3l-0.3-0.5-0.6 0.6c-2.5 2.3-4.6 3.2-8 3.2-1.6 0-2.8-0.2-3.9-0.8-2.2-1-3.6-2.9-4.1-5.5-0.1-0.9-0.1-3 0-3.8q0.4-2 1.4-3.5c0.5-0.7 1.4-1.7 2.1-2.2 1.7-1.3 4.2-2.1 7.8-2.5 0.9-0.1 3.9-0.5 4.1-0.5 0.1 0 0.1-0.1 0.1-1.4-0.1-1.6-0.2-2.1-0.5-2.8q-0.5-0.8-1.3-1.3c-0.7-0.2-1.1-0.3-1.9-0.3-1.3 0-2.3 0.4-3.1 1.2-0.5 0.5-0.9 1.1-1 1.8-0.2 0.7-0.5 1.1-1 1.1-0.6 0-5.2-0.6-5.4-0.6-0.3-0.2-0.5-0.4-0.5-0.7-0.1-0.3 0.2-1.5 0.5-2.3 1.5-3.6 4.9-5.7 9.8-6.2 0.9-0.1 2.8 0 3.7 0.1zm-39.7 0.3c1.4 0.2 2.4 0.7 3.3 1.7 0.8 0.8 1.2 1.3 1.7 2.4l0.4 0.7 0.3-0.6q1.6-3.4 5.3-4.2c0.8-0.2 2.5-0.2 3.3 0 2.8 0.6 4.7 2.3 5.5 4.7 0.4 1.4 0.4 0.6 0.4 12.8v11.2l-0.1 0.3c-0.1 0.2-0.3 0.3-0.4 0.4-0.2 0.1-0.4 0.1-3.2 0.1-3.2 0-3.1 0.1-3.4-0.4l-0.2-0.2v-9.8c-0.1-10.7-0.1-10.1-0.5-11-0.4-0.9-1.4-1.4-2.7-1.4-1.6 0-2.9 1.1-3.4 2.8-0.2 1.1-0.3 1.6-0.3 10.5 0 4.9 0 8.6 0 8.7-0.1 0.4-0.4 0.7-0.7 0.8-0.4 0.1-5.6 0.1-5.9 0-0.1 0-0.3-0.1-0.4-0.2-0.3-0.3-0.3 0.2-0.3-9.4 0-5.7 0-9.1-0.1-9.6q-0.3-2.7-1.7-3.4c-0.6-0.2-1.3-0.3-2-0.2-1.7 0.2-2.5 1.3-2.9 3.7-0.1 0.6-0.1 1.6-0.2 9.6v8.9l-0.2 0.2c0 0.1-0.2 0.2-0.3 0.3-0.2 0.1-0.4 0.1-3.2 0.1h-2.9l-0.2-0.1c-0.6-0.4-0.5 0.9-0.5-14.5v-13.8l0.1-0.2c0.1-0.1 0.3-0.2 0.4-0.3 0.2-0.2 0.2-0.2 3-0.2 3.1 0 3 0 3.3 0.5 0.2 0.3 0.2 0.3 0.2 2.1v1.9l0.3-0.8c0.6-1.2 1.3-2.1 2.2-2.8 0.9-0.7 2.2-1.2 3.4-1.4 0.6-0.1 2 0 2.6 0.1zm89.9-0.1c5.8 0.6 9.7 5 10.7 12.2 0.2 1.1 0.2 3.9 0.1 5-0.3 4-1.8 7.4-4.1 9.7-1.7 1.7-3.6 2.7-5.9 3.2-1 0.1-3.3 0.1-4.3-0.1-0.9-0.2-2.1-0.6-2.9-1-1.8-0.9-3.4-2.6-4.5-4.5-1-1.6-1.7-3.9-2-6-0.7-4.9 0.1-9.9 2.2-13.3 0.7-1.2 2-2.6 3-3.3 1.7-1.1 3.2-1.7 5.5-1.9 0.5-0.1 1.6-0.1 2.2 0zm33.3 1.1q2.1 1.5 2.8 4.2c0.5 2 0.5 2.6 0.5 13.9v9.9l-0.2 0.2c-0.4 0.4-0.5 0.4-3.6 0.4-2.7-0.1-2.8-0.1-3-0.2-0.5-0.3-0.5 0.5-0.5-9.8 0-8 0-9.2-0.1-9.7-0.2-0.8-0.4-1.6-0.6-2-0.8-1.2-2.4-1.7-3.8-1-1.4 0.7-2.2 2-2.6 4.6 0 0.4 0 3-0.1 9v8.5l-0.2 0.2c-0.2 0.1-0.4 0.3-0.5 0.3-0.4 0.1-5.5 0.1-5.8 0-0.2 0-0.3-0.1-0.4-0.2-0.4-0.3-0.4 0.6-0.4-14.4v-13.8l0.2-0.2c0.3-0.5 0.3-0.5 3.4-0.5l2.8 0.1 0.2 0.2c0.4 0.3 0.4 0.4 0.4 2.6v2l0.3-0.6c1.3-3 3.1-4.5 5.8-4.8 2-0.2 4 0.2 5.4 1.1zm-59.2-0.6c10.1 0 9.3-0.1 9.6 0.5 0.1 0.3 0.1 0.4 0.1 2.1 0 2 0 2.1-0.4 2.8-0.2 0.3-2.4 3.5-5.1 7.3l-4.7 6.8 0.9 0.1c3.7 0.1 5.8 0.6 8.2 1.8 0.9 0.4 1.3 0.7 1.5 1.2 0.1 0.3 0.1 0.4 0.2 2.5q0 2.3-0.1 2.5c-0.1 0.4-0.5 0.8-0.8 0.8-0.2 0.1-0.3 0-1.1-0.3-2.7-1.4-5.4-2-8.6-2-3.2 0-5.8 0.6-8.6 2-0.4 0.2-0.8 0.3-0.9 0.3-0.3 0-0.6-0.2-0.8-0.4-0.1-0.2-0.1-0.4-0.1-2.9 0-2.7 0-3 0.3-3.8 0.1-0.1 2.6-3.7 5.4-7.9l5.3-7.5-4.7-0.1c-4.6 0-4.7 0-4.9-0.1-0.1-0.1-0.2-0.2-0.3-0.4-0.1-0.1-0.1-0.2-0.1-2.4 0-2.2 0-2.2 0.1-2.5 0.1-0.1 0.3-0.3 0.4-0.3 0.2-0.1 1.1-0.1 9.2-0.1zm23.9 5.1c-1.7 0.4-2.7 2-3.1 5-0.2 1-0.2 5.5-0.1 7 0.3 3.7 1.1 5.9 2.6 6.6 0.5 0.3 0.6 0.3 1.2 0.3 0.8 0.1 1.2 0 1.8-0.4 1.3-0.6 2.1-2.3 2.5-5.1 0-0.5 0.1-1.6 0.1-3.8 0-2.6 0-3.2-0.1-4-0.5-3.5-1.2-5-2.8-5.5-0.6-0.1-1.6-0.2-2.1-0.1zm-117 9.9h-0.4q-5.4 0.1-6.8 2.8c-0.4 0.8-0.6 1.4-0.6 2.5 0 1 0.1 1.5 0.5 2.2q0.4 0.9 1.3 1.3c0.5 0.2 0.5 0.3 1.2 0.3 0.6 0 0.9 0 1.2-0.1 1.4-0.4 2.6-1.7 3.2-3.5 0.3-1 0.4-1.4 0.4-3.5zm69.5 0h-0.5q-4.5 0.1-6.3 2c-0.7 0.9-1 1.7-1 3-0.1 1.5 0.2 2.5 0.9 3.2 0.6 0.7 1.2 0.9 2.2 0.9 1.1 0 2-0.4 2.8-1.2 0.7-0.8 1.4-2 1.6-3.2 0.2-0.7 0.3-2 0.3-3.5zm29.4 16.5c0.1 0.1 0.3 0.4 0.3 0.5 0.1 0.4 0.1 2.7 0 3.5-0.8 4.3-2.6 8.1-5.1 10.6-1 1-1.5 1.2-1.9 0.9-0.3-0.2-0.2-0.5 0.5-2.4 2.1-5.4 2.8-8.6 2-9.7-0.3-0.4-1.1-0.8-2.5-0.9-1.5-0.2-4.6 0-7.8 0.3-1.5 0.2-1.7 0.2-1.9 0-0.4-0.2-0.2-0.7 0.3-1.1 1.7-1.4 5.2-2.6 8.5-2.8 3.3-0.2 6.8 0.3 7.6 1.1zm-87.8 1.5c12 6.7 25.6 10.5 39.7 11.2 1.8 0.1 6.2 0.1 7.9 0 10-0.5 19.6-2.6 28.9-6.4 1.6-0.6 2-0.7 2.3-0.7 0.9 0 1.6 0.7 1.4 1.5-0.1 0.6-0.5 0.9-2.4 2.2q-7.9 5.2-18.5 7.9c-8.7 2.2-17.1 2.7-25.9 1.5-12-1.6-23.3-6.5-32.7-14.1-1-0.7-2.5-2-2.9-2.4-0.5-0.5-0.6-1.2-0.1-1.4 0.4-0.3 0.6-0.2 2.3 0.7z"/></svg>