<svg version="1.2" xmlns="http://www.w3.org/2000/svg" viewBox="0 0 191 67" width="191" height="67"><style>.a{fill:#582370}</style><path fill-rule="evenodd" class="a" d="m71.5 37.8l3.2 4.2 3.4-4.2h112.1v21.5c0 0 0 6.9-9.4 6.9h-60.3l-3.6-4.5v4.5h-11.9v-7.7c0 0-1.6 1.1-5.1 1.1h-4.1v6.6h-18l-3.2-4.3-3.3 4.3h-29.8v-28.4zm-9.1 25v-4.6h-11.9v-3.8h11.7v-4.5h-11.7v-3.6h11.9v-4.8h-17.3v21.3zm84.9-4.6h-12v-3.8h11.6v-4.5h-11.6v-3.6h12v-4.8h-17.4v21.3h17.4zm-75.8-5.9l-8.4 10.5h6.6l4.9-6.5 5 6.5h6.6l-8.4-10.6 8.5-10.7h-6.4l-5.2 6.7-5.1-6.7h-6.7zm15.3-10.7v21.2h5.5v-6.7h5.6c4.7 0 8.3-2.5 8.3-7.4 0-4-2.8-7.1-7.6-7.1zm5.4 4.8h5.9c1.5 0 2.6 0.9 2.6 2.4 0 1.5-1.1 2.5-2.6 2.5h-5.9zm21.5 8.9h2.2l6.4 7.5h6.5l-7-7.8c2.9-0.2 5.8-2.7 5.8-6.5 0-4.5-3.5-6.9-7.4-6.9h-11.8v21.2h5.3zm8.6-6.7c0 1.4-1.4 2.3-2.5 2.3h-6.1v-4.5h6.1c1.4 0 2.5 1.1 2.5 2.2zm38.6 14.3c4.7 0 6.9-3.1 6.9-6.8 0-3.4-2-6.1-6.6-6.1h-5.1c-1.3 0-1.9-0.9-1.9-1.8 0-0.9 0.5-1.8 2.2-1.8h8.9l2.3-4.8h-10.4c-6.1 0-8.3 3.3-8.3 6.7 0 3.8 2.3 6.4 6.5 6.4h4.8c1.6 0 2.3 0.9 2.3 1.8 0 0.9-0.7 1.8-2.3 1.8h-10.6v4.6zm8.2-4.6v4.6h11.3c4.6 0 6.9-3.1 6.9-6.8 0-3.4-2-6.1-6.7-6.1h-5c-1.3 0-2-0.9-2-1.8 0-0.9 0.6-1.8 2.3-1.8h8.9l2.2-4.8h-10.3c-6.2 0-8.3 3.3-8.3 6.7 0 3.8 2.3 6.4 6.5 6.4h4.8c1.6 0 2.2 0.9 2.2 1.8 0 0.9-0.7 1.8-2.2 1.8z"/><path fill-rule="evenodd" class="a" d="m24.9 0.1l3.9 8.9v-8.9h14.5l2.3 6.4 2.2-6.4h65.3v3.2c0 0 3.5-3.2 9.1-3.2l21.2 0.1 3.8 8.7v-8.8h12.1l3.4 5v-5h12.3v28.4h-12.3l-3.2-5v5h-17.9l-1.8-4.5h-4.8l-1.8 4.5h-12.1c-4.9 0-8-3.2-8-3.2v3.2h-18.3l-3.6-4.5v4.5h-68l-1.8-4.5h-4.8l-1.8 4.5h-14l5.7-12.6 6.7-15.8zm7.4 3.5v21.3h5.3v-15.7l5.6 15.7h4.7l5.6-15.7v15.7h5.3v-21.3h-8.4l-4.8 13.7-4.9-13.7zm-19.8 21.3l1.7-4.3h9.8l1.6 4.3h6.1l-9.1-21.3h-6.9l-9.2 21.3zm3.6-8.9l3-7.4 3 7.4zm63.7 8.9v-4.6h-11.9v-3.8h11.7v-4.5h-11.7v-3.6h11.9v-4.8h-17.3v21.3zm8.4 0v-7.6h2.2l6.4 7.6h6.5l-7-7.8c2.9-0.3 5.8-2.7 5.8-6.6 0-4.4-3.5-6.9-7.4-6.9h-11.8v21.3zm8.6-14.3c0 1.4-1.4 2.3-2.5 2.3h-6.1v-4.5h6.1c1.4 0 2.5 1.1 2.5 2.2zm12.9-7h-5.4v21.3h5.4zm11.7 21.2h1.1l2.3-4.6h-1.4c-3.4 0-5.8-1.7-5.8-5.9 0-3.4 2.1-5.7 5-5.7h6.1v-5h-5.9c-7.1 0-10.5 4.5-10.5 10.7 0 6.1 3.4 10.5 9.1 10.5zm12.7-21.2l-9.1 21.2h5.9l1.7-4.2h9.8l1.6 4.2h6.1l-9.1-21.2zm3.4 4.9l3 7.5h-6zm13.3-5v21.3h5.3v-13.7l8.8 13.7h6.5v-21.3h-5.3v13.4l-8.6-13.4z"/></svg>