<svg version="1.2" xmlns="http://www.w3.org/2000/svg" viewBox="0 0 211 56" width="211" height="56"><style>.a{fill:#582370}</style><path class="a" d="m8.1 1.2c-1.4-0.8-3.1-0.9-4.6-0.2l24.7 24.7 8.1-8.1zm-6.9 2.1q-0.4 1-0.5 2.1v45.3q0.1 1.1 0.5 2.1l24.7-24.8zm26.9 27l-24.6 24.8q1 0.4 2 0.4c0.9 0 1.7-0.2 2.5-0.6l28.2-16.5zm18.7-6.4q0 0 0 0l-7.8-4.6-8.7 8.7 8.7 8.7c0 0 7.8-4.5 7.8-4.5 1.5-0.9 2.4-2.5 2.4-4.2 0-1.7-0.9-3.2-2.4-4.1z"/><path class="a" d="m28.2 30.3l-24.6 24.8q1 0.4 2 0.4c0.9 0 1.7-0.2 2.5-0.7l28.2-16.4z"/><path class="a" d="m47 23.9q0 0 0 0l-7.9-4.6-8.6 8.7 8.6 8.7c0 0 7.9-4.6 7.9-4.6 1.4-0.9 2.3-2.4 2.3-4.1 0-1.7-0.9-3.2-2.3-4.1z"/><path class="a" d="m8.1 1.2c-1.4-0.8-3.1-0.9-4.6-0.2l24.7 24.7 8.1-8.1z"/><path fill-rule="evenodd" class="a" d="m72 13.7c2.5 0 4.4 0.5 6.3 1.8 2 1.3 2 1.3 0.7 2.6l-1.1 1.1-0.9-0.7c-4.1-3.1-10.3-1.5-12.5 3.1-1.2 2.6-1.2 5 0 7.6 1.9 3.9 6.6 5.7 10.7 4.2 1.4-0.5 2.8-1.7 3.5-2.8 0.5-0.9 1.1-2.8 0.9-2.9-0.1-0.1-1.8-0.1-3.9-0.1h-3.8l0.1-1.6 0.1-1.6h5.3 5.4l0.1 0.6c0.1 0.3 0.1 1.2 0.1 2.1-0.4 4.9-3.3 8.5-7.7 9.7-1.7 0.4-4.6 0.4-6.3 0-3.9-1-7.1-4.1-8.4-8.1-0.6-1.5-0.6-5.1 0-6.6 1.3-3.9 4.5-7 8.4-8.1 0.5-0.1 1.9-0.2 3-0.3zm62.1 0.8h3.3v22.2h-3.3zm26.1 0h5l5 0.1 1.2 0.6c1.4 0.6 3 2.2 3.6 3.5 0.4 0.8 0.5 1.3 0.5 2.7 0 1.5-0.1 1.9-0.6 2.9-0.7 1.4-2.3 2.9-3.8 3.5-0.9 0.3-1.5 0.4-4.3 0.5l-3.1 0.1v8.3h-3.5zm17.1 0h3.3v22.2h-3.3zm-10.9 3.1h-2.7v7.6h2.5c3 0 3.8-0.2 4.8-1.2 1.9-1.9 1.4-4.8-0.9-6-0.8-0.3-1.2-0.4-3.7-0.4zm28.2 7c0.9 1.4 1 2.2 1 7.3v4.8h-3.3v-1.7l-0.6 0.7c-2.2 2.4-7.2 1.7-8.7-1.4-0.5-1.1-0.6-2.9-0.1-3.9 0.5-1 1.6-2 2.7-2.5 1.8-0.8 4-0.9 5.8-0.2 1 0.3 0.9 0.3 0.9-0.2 0-1.2-1.8-2.5-3.4-2.5-1 0-2.3 0.6-2.7 1.2l-0.3 0.4-1.5-0.5c-0.8-0.3-1.4-0.7-1.4-0.8 0-0.5 1.6-2.1 2.5-2.5 0.5-0.3 1.4-0.6 2-0.7 2.8-0.5 5.8 0.6 7.1 2.5zm-99.6-1.9c4 2 5.5 6.6 3.4 10.5-2.8 5.3-10.6 5.3-13.4 0-2.2-4.1-0.2-9.1 4.2-10.7 1.5-0.6 4.3-0.5 5.8 0.2zm13.6-0.6c1.6 0.1 2 0.2 3.1 0.7 1.6 0.8 2.7 2 3.6 3.7 0.5 1.2 0.6 1.5 0.6 3.1-0.1 2.3-0.6 3.6-2 5.1-4.5 4.9-12.8 2.1-13.1-4.5 0-0.9 0-2 0.2-2.6 0.5-2.2 2.4-4.3 4.7-5.1 0.8-0.3 1.4-0.4 2.9-0.4zm18 0.3c0.4 0.2 1 0.5 1.4 0.8l0.6 0.5v-1.2h3.3v6.8c0 3.8-0.1 7.5-0.2 8.3-0.3 2.7-1.6 4.7-3.6 5.6-0.9 0.5-1.4 0.6-2.9 0.7-2.2 0.1-3.5-0.3-4.8-1.3-0.9-0.7-2.5-2.6-2.5-3 0-0.1 0.7-0.4 1.4-0.7 1.3-0.6 1.5-0.6 1.6-0.3 0.9 1.4 2.4 2.4 3.6 2.4 2.6 0 4.1-1.8 4.1-4.6v-0.9l-0.6 0.5c-1.4 1-2.8 1.4-4.6 1.1-2.3-0.5-4.3-2-5.3-4.3-0.6-1.2-0.7-1.4-0.7-3.2 0-1.7 0.1-2.1 0.6-3.1 0.9-2 2.3-3.3 4.2-4 1.1-0.5 3.4-0.5 4.4-0.1zm22 0.1c1.5 0.5 2.9 2 3.8 3.7 0.3 0.8 0.5 1.4 0.4 1.5 0 0.1-2.3 1.1-4.9 2.2-2.7 1.1-4.9 2.1-4.9 2.2 0 0.4 1.2 1.4 2 1.8 0.4 0.1 1.1 0.3 1.6 0.3 1 0 2.7-0.8 3.2-1.5 0.2-0.3 0.5-0.5 0.5-0.5 0.3 0 2.5 1.6 2.5 1.7 0 0.4-2.1 2.1-3 2.6-2.8 1.3-6.3 0.7-8.6-1.5-2.7-2.7-2.9-7.3-0.5-10.4 0.8-1 1.7-1.6 3.1-2.1 1.3-0.5 3.4-0.5 4.8 0zm47.2 0h3.6l2 4.7c1 2.7 2 4.8 2 4.8 0.1 0 0.9-2.1 2-4.7l1.8-4.7 1.9-0.1c1.5 0 1.9 0 1.8 0.2-1 2.5-8.9 20.6-9 20.7-0.1 0-0.9 0.1-1.8 0.1l-1.7-0.1 1.6-3.6c0.9-2 1.7-3.7 1.7-3.8 0-0.1-1.1-2.5-2.3-5.4-1.3-2.8-2.6-5.8-2.9-6.6zm-108.3 7.1c0 1.2 0.5 2.5 1.1 3.3 0.5 0.6 2.2 1.3 3.1 1.3 1 0 2.6-0.8 3.2-1.6 1.1-1.4 1.3-3.5 0.5-5.1-0.5-1.2-0.9-1.5-2.1-2.1-2.8-1.3-5.8 0.9-5.8 4.2zm18.9-4c-1.5 0.7-2.2 1.9-2.3 3.7-0.1 1.2 0 1.5 0.4 2.5 1.2 2.3 4.1 3.1 6.2 1.5 2.9-2.2 2.1-7.1-1.2-8.1-1.2-0.3-2-0.2-3.1 0.4zm15.3 1c-3 3.5 0.6 9 4.7 7.2 1.6-0.7 2.5-2.6 2.3-4.7-0.1-1.8-1-3.2-2.5-3.8-1.6-0.6-3.3-0.2-4.5 1.3zm20.7 1.8c-0.1 0.5-0.1 0.9-0.1 0.9 0.1 0 1.4-0.5 3-1.2 1.6-0.6 3.1-1.3 3.3-1.4 0.4-0.1 0.4-0.2 0.2-0.6-0.2-0.2-0.6-0.5-1-0.7-2.1-1.2-4.9 0.4-5.4 3zm45.5 1.8c-1.9 0.5-2.7 2.2-1.5 3.3 1.6 1.3 4.3 0.6 5.4-1.4 0.6-1 0.6-1.4-0.2-1.7-1-0.4-2.6-0.5-3.7-0.2z"/></svg>