<svg version="1.2" xmlns="http://www.w3.org/2000/svg" viewBox="0 0 120 44" width="120" height="44"><style>.a{fill:#582370}</style><path class="a" d="m14 43.4q-5.3-0.2-8.7-2.9c-0.4-0.4-1.5-1.4-1.8-1.9-0.9-1.1-1.6-2.3-2-3.5-1.3-3.9-0.6-9 1.9-14.7 2.2-4.8 5.5-9.5 11.3-16.1 0.8-1 3.4-3.8 3.4-3.8 0 0-0.2 0.2-0.3 0.5-1.5 2.6-2.8 5.6-3.5 8.2-1.2 4.2-1 7.7 0.4 10.5 0.9 1.9 2.6 3.6 4.4 4.5 3.3 1.6 8 1.8 13.8 0.4 0.4-0.1 20.1-5.4 43.8-11.8 23.8-6.4 43.2-11.6 43.2-11.6 0 0-55.1 23.9-83.8 36.3-4.5 2-5.7 2.5-7.8 3.2-5.5 2-10.4 2.9-14.3 2.7z"/></svg>