<svg version="1.2" xmlns="http://www.w3.org/2000/svg" viewBox="0 0 136 18" width="136" height="18"><style>.a{fill:#582370}</style><path fill-rule="evenodd" class="a" d="m47.2 17h-2.9l-3.8-5.6v-0.1c-1 0-2.4 0-2.4 0v5.7h-2.4v-16.2h5.7c2.6 0 4.8 2.4 4.8 5.3 0 1.8-0.8 3.4-2.2 4.4-0.2 0.1-0.5 0.3-0.7 0.4h-0.1zm-3.6-10.9c0-1.5-1.1-2.8-2.5-2.8h-3v5.6h3c1.4 0 2.5-1.2 2.5-2.8zm17.8 2.9c0 4.5-3.1 8.1-7.1 8.1h-4v-16.2h4c3.9 0 7.1 3.7 7.1 8.1zm-2.5 0c0-3.2-2-5.7-4.6-5.7h-1.5v11.5h1.5c2.6 0 4.6-2.6 4.6-5.8zm40.8 8h-3l-3.8-5.6c-1 0-2.4 0-2.4 0v5.6h-2.5v-16.1h5.7c2.7 0 4.8 2.4 4.8 5.2 0 1.8-0.8 3.4-2.1 4.4-0.2 0.2-0.5 0.3-0.7 0.5h-0.1zm-3.6-10.9c0-1.6-1.1-2.8-2.6-2.8h-2.9v5.6h2.9c1.5 0 2.6-1.3 2.6-2.8zm-11.2-3h-3.9v13.9h-2.6v-13.9h-3.9v-2.2h10.4zm-82.3 3.8l-0.1-0.1v10.1h-2.5v-16.4l9.7 10.6v-10.3h2.5v16.6zm115.7 1.9c0 4.7-3.8 8.5-8.5 8.5-4.7 0-8.5-3.8-8.5-8.5 0-4.6 3.8-8.5 8.5-8.5 4.7 0 8.5 3.9 8.5 8.5zm-2.4 0.1c0-3.4-2.7-6.1-6.1-6.1-3.3 0-6 2.7-6 6.1 0 3.3 2.7 6 6 6 3.4 0 6.1-2.7 6.1-6zm-83.4-0.1c0 4.7-3.8 8.5-8.5 8.5-4.7 0-8.5-3.8-8.5-8.5 0-4.6 3.8-8.5 8.5-8.5 4.7 0 8.5 3.9 8.5 8.5zm-2.5 0.1c0-3.4-2.7-6.1-6-6.1-3.4 0-6.1 2.7-6.1 6.1 0 3.3 2.7 6 6.1 6 3.3 0 6-2.7 6-6zm41.2 6.9c-0.8 0.8-1.9 1.3-3.1 1.4h-0.1c-3.3 0-4.4-2.7-4.6-3.2l2.1-1 0.1 0.1c0.3 0.7 1 1.8 2.5 1.8h0.1c0.5-0.1 0.9-0.3 1.3-0.6 0.4-0.5 0.6-1.1 0.5-1.7 0-0.8-0.5-1.5-1.5-2.3l-1.8-1.6c-1.7-1.3-2.4-2.6-2.5-4-0.1-1.2 0.3-2.2 1-3 0.7-0.7 1.8-1.1 2.9-1.2 2.1-0.1 3.6 1.4 4 1.9l-2 1.4v-0.1c-0.7-1-1.9-0.8-1.9-0.8-1 0-1.6 0.7-1.6 1.6 0 0.8 0.4 1.5 1.2 2.2l2 1.7c2.2 1.7 2.6 3.4 2.6 4.2 0.1 1.3-0.4 2.4-1.2 3.2zm57.6-5.5l7.2-9.9v16.5h-2.4v-8.8l-4.8 6.4-4.8-6.4v8.8h-2.5v-16.5z"/></svg>