<svg version="1.2" xmlns="http://www.w3.org/2000/svg" viewBox="0 0 139 53" width="139" height="53"><style>.a{fill:#582370}</style><path fill-rule="evenodd" class="a" d="m8.5 1.5c-0.8 1.4-1.4 2.9-1.9 4.6-0.1 0.7-0.2 1.1-0.5 2.7-0.2 1.3-0.2 5.6 0.1 7.8 0.1 1.2 0.3 2.6 0.4 3 0 0.3 0.1 0.8 0.2 1.2 0.1 0.4 0.2 0.9 0.2 1.1 0 0.1 0.1 0.5 0.2 0.8 0 0.3 0.1 0.8 0.2 1.1 0.9 3.6 0.9 3.6 1 4.9 0.2 1.3 0.2 4.6 0.1 5.9-0.1 1.1-0.2 1.2-0.3 1.8 0 0.2-0.1 0.6-0.1 0.9-0.1 0.2-0.2 0.7-0.3 1-0.1 0.4-0.2 0.8-0.2 0.9-0.2 1.1-1.6 4.6-2.3 6-1.1 2-1.7 3-2.7 4.5-0.6 0.9-2.1 2.8-2.3 2.9-0.1 0.1-0.2 0.2-0.2 0.3-0.2 0.2-0.1-0.1 0.1-0.3 0-0.2 0.3-0.6 0.5-1 0.2-0.4 0.4-0.8 0.4-0.8 0.1-0.1 0.1-0.2 0.1-0.2 0-0.1 0.1-0.2 0.1-0.3 0.1-0.1 0.3-0.6 0.4-0.9 0.6-1.5 1-2.9 1.3-4.4 0-0.4 0.1-0.9 0.2-1.2 0.2-1.4 0.3-5.6 0.1-7.9-0.2-1.2-0.4-3.1-0.6-4.2-0.1-0.2-0.1-0.6-0.2-0.9 0-0.3-0.1-0.7-0.1-0.8-0.1-0.2-0.2-0.6-0.2-1-0.1-0.3-0.2-0.8-0.3-1.1-0.3-1-0.6-2.5-0.8-3.5 0-0.3-0.1-0.7-0.1-0.9-0.2-0.7-0.2-4.9-0.1-5.9 0.2-1.9 0.6-3.8 1.2-5.4 0.1-0.5 0.3-0.9 0.3-1 0.1-0.2 1.1-2.5 1.2-2.6 0 0 0.1-0.2 0.2-0.4 0.2-0.4 1.5-2.6 2-3.3 0.2-0.3 0.3-0.5 0.3-0.5 0-0.1 2.6-3.4 2.7-3.4 0.1 0-0.1 0.2-0.3 0.5z"/><path fill-rule="evenodd" class="a" d="m100.8 21c3.3 3.2 3.3 8.8 0 12-3.1 3.1-7.7 3.2-10.8 0.2-1.1-1-1.9-2.4-2.3-3.8-0.3-1-0.4-3.3-0.1-4.4 0.7-3.2 3.5-5.9 6.5-6.3 2.6-0.3 4.8 0.4 6.7 2.3zm8.5-2.5l3.2 0.1c2.9 0 3.3 0.1 4.2 0.4q3.1 1.2 2.8 4.8c-0.1 1.9-0.8 3.2-2.1 3.9l-0.6 0.3 2.1 3.1c1.2 1.8 2.1 3.3 2.1 3.4 0 0.1-0.4 0.1-1.4 0.1h-1.4l-1.6-2.6c-0.9-1.3-1.7-2.7-1.9-3l-0.3-0.6-1.2 0.1c-0.7 0-1.3 0.1-1.3 0.2-0.1 0.1-0.1 1.4-0.1 3v2.9h-2.4zm-83 0.8l0.9 0.4-0.4 0.9c-0.1 0.5-0.3 1-0.3 1.1-0.1 0.2-0.2 0.2-0.6-0.1-0.5-0.4-1.8-0.8-2.4-0.8-0.7 0-1.8 0.6-2 1-0.3 0.6-0.2 1.5 0.1 2.1 0.2 0.4 1.1 1.1 3.3 2.3 1 0.5 2 1.6 2.5 2.5 0.3 0.6 0.4 1 0.4 2.1 0 1.1-0.1 1.4-0.5 2.2-1 1.6-2.5 2.3-4.9 2.2-1.4-0.1-3-0.5-3.4-0.9-0.1-0.1 0.6-1.9 0.8-2.1 0-0.1 0.5 0.1 1.1 0.4 2.4 1.1 4.7 0.3 4.7-1.7 0-1-0.8-1.7-2.8-2.8-2.7-1.4-3.7-2.6-3.9-4.6-0.2-2 1.2-4.1 3.2-4.7 1.1-0.3 2.5-0.1 4.2 0.5zm8.4-0.3h9.5l-0.1 2.1h-7v4.2h2.5c1.5 0 2.4 0.1 2.5 0.2 0 0.1 0 0.5 0 1v0.9h-5v5.4h7.1v2.1h-9.5zm17.3 0h2.8c1.6 0 3.3 0.1 3.7 0.2 1.2 0.3 2.5 1.1 3 2 0.5 0.8 0.5 0.9 0.5 2.6 0 1.6 0 1.9-0.4 2.6-0.5 1-1.5 1.8-2.6 2.1-0.5 0.2-1.7 0.3-2.7 0.4l-1.9 0.1v6h-2.4zm16.5 0h2.3v6.3h7.6v-6.3h2.5v15.9h-2.5v-7.5h-7.6v7.5h-2.3zm62.7 0h2.7l0.8 2.5c0.5 1.3 1.5 4.5 2.3 7.1 0.8 2.5 1.6 4.9 1.7 5.3 0.2 0.4 0.3 0.8 0.3 0.9 0 0.1-0.6 0.1-1.3 0.1h-1.2l-1.1-3.6-5.7-0.1-1 3.7h-1.3c-1 0-1.3 0-1.3-0.2 0.1-0.1 1-3 2.1-6.4 1.1-3.4 2.2-6.8 2.5-7.7zm-17.8 1.6h-1.7l0.1 5.8h1.4c2.9-0.1 4.1-0.9 4.1-2.9 0-1.2-0.4-1.9-1.4-2.4-0.7-0.3-1.1-0.4-2.5-0.5zm-22.6 2.8c-1.6 2.4-1.3 5.9 0.7 8 2.8 2.8 6.9 2 8.7-1.7 0.5-1 0.5-1.2 0.5-2.7 0-1.3-0.1-1.8-0.4-2.5-0.5-1.4-1.9-2.8-3.2-3.2-2.3-0.9-4.8-0.1-6.3 2.1zm-34.8-2.3h-1.6v5.7h1.7c2.8-0.2 3.8-1 3.8-2.9 0-1.4-0.3-1.9-1.5-2.4-0.6-0.3-1.1-0.4-2.4-0.4zm76.6 0.7c-0.1 0-0.6 1.6-1.1 3.6l-1.1 3.6h2.1c1.2 0.1 2.1 0 2.2 0 0 0-0.5-1.6-1-3.6-0.6-1.9-1.1-3.6-1.1-3.6z"/></svg>