<svg version="1.2" xmlns="http://www.w3.org/2000/svg" viewBox="0 0 125 40" width="125" height="40"><style>.a{fill:#582370}</style><path fill-rule="evenodd" class="a" d="m23.2 0.8c4.4 0.8 8 2.8 11 6 6.9 7.4 6.9 18.9 0 26.3-6.6 7.1-16.9 8.4-25.2 3.2-3.3-2-6.5-5.9-7.7-9.3-0.2-0.7-0.4-1.3-0.3-1.4 0 0 1.6 0.6 3.6 1.3 3.2 1.4 3.5 1.6 4 2.6 0.8 1.5 1.3 2.1 2.6 2.8 1.2 0.6 3.3 0.7 4.6 0.2 1.7-0.6 3.6-3.2 3.6-4.8 0-0.9 6.4-5.4 7.6-5.4 1.3 0 3.6-1.3 4.8-2.6 3.3-3.6 2.1-9.3-2.3-11.4-1.9-0.9-4.8-1-6.4-0.1-2.4 1.2-4.3 3.8-4.3 5.8 0 0.6-0.7 1.9-2.4 4.3-1.9 2.8-2.5 3.4-3 3.4-0.4 0-1.3 0.2-1.9 0.5-1 0.4-1 0.4-6.3-1.7l-5.2-2.1 0.2-1.1c1.3-8.4 7.5-14.8 15.7-16.5 2.5-0.5 4.6-0.5 7.3 0zm5.3 9.9c1.5 0.8 2.7 2.6 2.7 4.1 0 1.4-1.2 3.4-2.4 4.2-0.8 0.6-1.3 0.7-2.8 0.6-2.9-0.2-4.6-1.9-4.6-4.7 0-3.8 3.8-6 7.1-4.2zm-4.2 1c-2.9 1.9-2.2 6.1 1 6.8 4.1 0.9 6.4-4.6 2.8-6.7-1.1-0.7-2.7-0.8-3.8-0.1zm33.6 1c0.8 0.1 1.7 0.5 2 0.7 0.4 0.3 0.5 0.5 0.1 1.3-0.5 1.2-0.6 1.2-1.9 0.7-1.3-0.5-3.4-0.5-4 0q-2.2 1.7 2.4 3.3c1.5 0.5 2.8 1.2 3.4 1.7 0.9 0.8 1 1.1 1 2.4 0 1.7-0.8 3.1-2.4 4-1.6 1-6.4 0.7-8.2-0.4-0.3-0.2-0.2-0.4 0.1-1.4l0.5-1.2 1.2 0.4c0.7 0.2 1.9 0.4 2.8 0.4 1.9 0 2.7-0.5 2.7-1.6q0-1.1-3.3-2.2c-2.8-0.8-4-2.1-4-4.2 0-3.2 3.1-4.9 7.6-3.9zm17.4 2.6h-4.4v12h-3v-12l-2.2-0.1-2.3-0.1-0.1-1.2-0.1-1.2h12.1zm13.5 0h-6.7v3.2h5.8v2.6h-5.8v3.5h6.7v2.6h-9.7v-14.6h9.7zm14.3 4.4c1.5 3.8 2.8 7 2.8 7.2 0 0.3-0.5 0.4-1.6 0.4h-1.6l-0.4-1.4-0.4-1.4h-3l-3-0.1-0.9 2.9h-3.2l0.8-2.3c2.6-6.8 4.5-11.8 4.6-12.1 0.1-0.1 0.9-0.2 1.7-0.1l1.5 0.1zm11.6-1.8c1.4 2.9 2.6 5.1 2.7 5 0.1-0.1 1.2-2.4 2.5-5.2l2.3-5.1h2.8v14.6h-2.6l-0.2-8.9-2.1 4.3c-1.9 4-2.2 4.4-2.9 4.4-0.7 0-1-0.4-2.8-4.2l-2-4.2-0.1 8.6h-2.9v-14.6h2.9zm-17 1c-0.4 1.3-0.9 2.6-0.9 2.8-0.1 0.2 0.4 0.3 2 0.3 1.5 0 2-0.1 1.9-0.3 0-0.2-0.5-1.5-0.9-2.8-0.5-1.3-1-2.4-1-2.4-0.1 0-0.6 1.1-1.1 2.4zm-82.2 4.8c2.9 1.5 3.1 5.2 0.3 7-1.3 0.9-3.1 0.9-4.4 0-1.6-1.1-1.4-1.4 0.3-0.8 2 0.8 3.5 0.5 4.4-0.9 1.2-2 0.5-3.7-1.9-4.8-0.9-0.4-1.6-0.8-1.6-0.8 0-0.4 2-0.1 2.9 0.3z"/></svg>