<svg version="1.2" xmlns="http://www.w3.org/2000/svg" viewBox="0 0 94 56" width="94" height="56"><style>.a{fill:#582370}</style><path fill-rule="evenodd" class="a" d="m22 3.4c3.8 2.9 6 8.3 5.2 13.1l-0.3 2.4h-2.4c-1.3 0-2.4-0.1-2.4-0.2 0-0.1 0.3-1 0.6-1.9 1.9-5.3-3.5-12.1-9.5-12.1-3.6 0.1-8.9 4.9-8.9 8.3 0 1.5 0.1 1.5 3.3 1.5h3.2v4.4h-5.1c-5.8 0-5.7 0.1-5.7-4.9 0-5.8 3.6-10.8 9.2-12.7 4.4-1.6 9-0.9 12.8 2.1zm48.1 11.2l1.5 0.2 0.3 26.5-3.6-0.3-0.1-12c-0.1-6.6 0-12.6 0.1-13.3 0.3-1 0.7-1.2 1.8-1.1zm6.4-0.1h1.3v26.8h-3.2v-13c0-7.2 0.1-13.2 0.3-13.4 0.2-0.2 0.9-0.4 1.6-0.4zm-71.7 8c0.3 0.3 2.1 6.7 4.1 14.4 3.5 13.1 4.2 15.3 4.9 14.7 0.1-0.2 2-6.8 4.1-14.7 2.1-8 4.1-14.6 4.3-14.8 0.3-0.1 1.1-0.2 1.7-0.2 0.7 0.1 1.4 0.2 1.6 0.2 0.9 0.1 0.6 1.3-7 28.4-1 3.7-2.2 5-4.9 5-3.8 0-4-0.5-8.7-17.4-2.4-8.6-4.2-15.7-4.1-16 0.4-0.5 3.4-0.3 4 0.4zm34.6-0.1c2.3 1.2 2.7 2.9 2.7 11.3v7.6h-1.6c-0.9 0-1.6-0.2-1.6-0.5 0-0.3-1-0.1-2.3 0.3-4.6 1.6-8-0.2-8.4-4.6-0.4-4.7 1.6-6.6 7.4-6.8 3.2-0.2 3.3-0.2 3.3-1.7 0-0.8-0.5-2-1.2-2.6-1-1.1-1.5-1.2-4.8-0.8-3.7 0.3-3.7 0.3-3.7-1 0-0.8 0.3-1.4 0.9-1.6 2.2-0.6 7.9-0.3 9.3 0.4zm8-0.1c0.5 0.5 1 0.5 2 0 2.3-1.1 5.9-0.8 7.5 0.4 2 1.6 2.5 4.2 2.5 11.9v6.7l-3.5-0.3-0.1-7.5c-0.2-7.2-0.2-7.5-1.5-8.4-1.3-0.8-4-0.7-5.6 0.3-0.5 0.3-0.7 2.6-0.8 8l-0.1 7.6-3.5 0.3v-9.5c0-5.2 0.2-9.6 0.4-9.8 0.5-0.6 2-0.4 2.7 0.3zm14.7-0.7l3 0.3 0.3 19.4h-3.3zm28.5 0.6c2.8 1 3.4 3.1 3.4 11.7v7.4h-1.6c-0.9 0-1.6-0.2-1.6-0.5 0-0.3-1.3-0.1-2.7 0.3-5.1 1.5-8.1-0.6-8.1-5.6 0-3.9 1.3-5 6.7-5.8 3.7-0.5 4.1-0.7 4.1-1.9 0-0.7-0.6-1.8-1.2-2.4-1-1.1-1.5-1.1-4.9-0.8-3.6 0.3-3.7 0.3-3.7-1 0-0.8 0.4-1.4 1-1.6 1.8-0.5 7-0.4 8.6 0.2zm-51.7 9.8h-2.3q-4.9 0-5.2 3c-0.2 2.4 1 3.8 3.4 3.7 3.3-0.2 4.1-0.9 4.1-4zm51.9 0h-2.6c-3.4 0-5 1.1-5 3.5 0 2.3 1.1 3.3 3.5 3.2 3.3-0.2 4.1-0.9 4.1-4z"/><path class="a" d="m65.1 14.9l0.1 4.7-3.1-0.2v-4.9z"/></svg>