<svg version="1.2" xmlns="http://www.w3.org/2000/svg" viewBox="0 0 221 56" width="221" height="56"><style>.a{fill:#582370}</style><path fill-rule="evenodd" class="a" d="m2 13.2q0 0 0 0zm0 0h6.8c0.7 3.2 2.5 12.5 2.5 12.5 0.8 3.8 1.5 7.9 2 11h0.1c0.5-3.3 1.3-6.5 2.2-10.5l3-13h6.8l2.9 13.3c0.7 3.8 1.3 6.6 1.8 10.1h0.1c0.5-3.5 1.2-6.5 1.9-10.3l2.8-13.1h6.5l-8.1 30.3c-5.1 1.1-7.1-0.9-7.8-4.2-0.7-3.2-2.1-9.5-2.1-9.5-0.7-3.4-1.2-5.8-1.6-9.3h-0.1c-0.6 3.5-1.1 5.9-2 9.3l-3.4 13.7c-5.2 1.1-7-0.5-8-4.7-0.9-3.5-6.3-25.3-6.3-25.6zm62 0h6.2v30.3h-6.2zm93.5 0v7.2h5.4v5.8h-5.4v8.6c0 2.7 0.7 4.1 2.8 4.1 1 0 1.7-0.1 2.3-0.3l0.1 4.8c-0.8 0.3-2.6 0.7-4.5 0.7-2.1 0-3.9-0.8-5-1.9-1.3-1.3-1.9-3.5-1.9-6.6v-22.4zm-107.2 7.1c7.5 0 9.7 4.5 9.7 9.7v8.1c0 2.1 0.1 3.8 0.4 5.5-5.3 1.5-6.2-2.5-6.2-2.5h-0.2c-1.4 1.9-3.8 3-6.6 3-4.7 0-7.3-3.3-7.3-6.9 0-5.8 5.2-8.7 13.5-8.7v-0.3c0-1.4-0.6-3.5-4.4-3.5-2.3 0-4.8 0.8-6.3 1.7l-1.2-4.1c1.7-1 4.7-2 8.6-2zm37.1 0c3 0 5.3 1.6 6.3 4h0.1q1.2-1.8 2.9-2.8c1.3-0.8 2.7-1.2 4.5-1.2 4.1 0 7.7 2.8 7.7 9.8v13.5h-6.2v-12.5c0-3.6-1.3-5.7-3.8-5.7-1.9 0-3.2 1.3-3.7 2.8-0.2 0.5-0.3 1.2-0.3 1.8v13.6h-6.2v-13c0-3.1-1.2-5.2-3.7-5.2-2 0-3.3 1.6-3.8 2.9-0.2 0.6-0.3 1.3-0.3 1.9v13.4h-6.2v-22.8h5.9v3.1h0.1c1-1.7 2.8-3.6 6.7-3.6zm34.2 0c7.5 0 9.7 4.5 9.7 9.7v8.1c0 2.1 0.1 3.8 0.4 5.5-5.3 1.5-6.2-2.5-6.2-2.5h-0.1c-1.5 1.9-3.9 3-6.7 3-4.7 0-7.3-3.3-7.3-6.9 0-5.8 5.2-8.7 13.5-8.7v-0.3c0-1.4-0.6-3.5-4.4-3.5-2.3 0-4.8 0.8-6.3 1.7l-1.2-4.1c1.7-1 4.7-2 8.6-2zm25.9 0c0.6 0 0.9 0 1.4 0.1v6c-0.6-0.1-1.1-0.2-1.9-0.2-2.7 0-4.6 1.6-5 4q-0.2 0.8-0.2 1.7v11.7h-6.4v-22.8h5.6v4.3h0.2c1.2-3.3 3.9-4.8 6.3-4.8zm-93.7 12.3c-3.9 0-7.4 0.8-7.4 4 0 2 1.4 3 3.1 3 2 0 3.7-1.4 4.2-2.9 0.1-0.4 0.1-0.8 0.1-1.3v-2.8zm63.9 4c0 2 1.4 3 3.1 3 2 0 3.7-1.4 4.2-2.9 0.1-0.4 0.1-0.8 0.1-1.3v-2.8c-3.9 0-7.4 0.8-7.4 4z"/><path class="a" d="m196.4 2.2c-2 0-3.6 1.1-3.6 2.4l1.2 13.7c0.1 0.8 1.2 1.5 2.4 1.5 1.2 0 2.2-0.7 2.4-1.5l1.2-13.7c0-1.3-1.6-2.4-3.6-2.4zm-19.8 11c-1.1 0-2.2 0.8-3 2.1-1 1.7-0.8 3.6 0.4 4.3l12.5 5.8c0.8 0.3 1.8-0.3 2.4-1.3q0 0 0 0c0.7-1.1 0.6-2.3 0-2.8l-11.4-7.9q-0.4-0.3-0.9-0.2zm39.6 0q-0.5-0.1-1 0.2l-11.3 7.9c-0.6 0.5-0.7 1.7-0.1 2.8 0.6 1 1.7 1.6 2.5 1.3l12.5-5.8c1.2-0.7 1.4-2.6 0.4-4.3-0.8-1.3-2-2.1-3-2.1zm-29.2 18q-0.3 0-0.5 0.1l-12.5 5.8c-1.2 0.7-1.4 2.6-0.4 4.3 1 1.7 2.8 2.6 4 1.9l11.3-7.9c0.6-0.5 0.7-1.7 0-2.8h0.1c-0.5-0.9-1.3-1.4-2-1.4zm18.8 0c-0.7 0-1.5 0.5-2 1.4-0.6 1.1-0.5 2.3 0.1 2.8l11.3 7.9c1.2 0.7 3-0.2 4-1.9 1-1.7 0.8-3.6-0.4-4.3l-12.5-5.8q-0.2-0.1-0.5-0.1zm-9.4 5.7c-1.2 0-2.3 0.6-2.4 1.4l-1.2 13.7c0 1.4 1.6 2.5 3.6 2.5 2 0 3.6-1.1 3.6-2.5l-1.2-13.7c-0.2-0.8-1.2-1.4-2.4-1.4z"/></svg>