<svg version="1.2" xmlns="http://www.w3.org/2000/svg" viewBox="0 0 27 26" width="27" height="26"><style>.a{fill:#27014f}</style><path fill-rule="evenodd" class="a" d="m15.8 1.1l0.9 1c0.4 0.4 0.9 0.6 1.4 0.6h1.3c2.2 0 3.9 1.7 3.9 3.9v1.3c0 0.5 0.2 1 0.6 1.4l0.9 0.9c0.8 0.8 1.2 1.7 1.2 2.8 0 1-0.4 2-1.1 2.8l-1 0.9c-0.4 0.4-0.6 0.9-0.6 1.4v1.3c0 2.2-1.7 3.9-3.9 3.9h-1.3c-0.5 0-1 0.3-1.4 0.6l-0.9 0.9c-0.8 0.8-1.8 1.2-2.8 1.2-1 0-2-0.4-2.8-1.1q0 0 0-0.1l-0.9-0.9c-0.4-0.4-0.9-0.6-1.4-0.6h-1.3c-2.2 0-3.9-1.7-3.9-3.9v-1.3c0-0.5-0.2-1-0.6-1.4l-0.9-0.9c-1.6-1.5-1.6-4-0.1-5.5v-0.1l1-0.9c0.4-0.4 0.6-0.9 0.6-1.4v-1.3c0-2.2 1.7-3.9 3.9-3.9h1.3c0.5 0 1-0.2 1.4-0.6l0.9-0.9c1.5-1.6 4-1.6 5.6-0.1zm-4.2 1.4l-0.9 1c-0.8 0.7-1.8 1.1-2.8 1.1h-1.3c-1.1 0-2 0.9-2 2v1.3c0 1-0.4 2-1.1 2.8l-1 0.9q0 0 0 0c-0.7 0.8-0.7 2 0 2.8l1 0.9c0.7 0.8 1.1 1.7 1.1 2.8v1.3c0 1.1 0.9 2 2 2h1.3c1 0 2 0.4 2.8 1.1l0.9 1c0.8 0.7 2 0.7 2.8 0l0.9-1c0.8-0.7 1.8-1.1 2.8-1.1h1.3c1.1 0 2-0.9 2-2v-1.3c0-1 0.4-2 1.1-2.8l1-0.9c0.3-0.4 0.6-0.9 0.6-1.4 0-0.5-0.3-1-0.6-1.4l-1-0.9c-0.7-0.8-1.1-1.8-1.1-2.8v-1.3c0-1.1-0.9-2-2-2h-1.3c-1 0-2-0.4-2.8-1.1l-0.9-1c-0.8-0.7-2-0.7-2.8 0zm4.7 12.4c0.7 0 1.3 0.6 1.3 1.3 0 0.8-0.6 1.3-1.3 1.3-0.8 0-1.4-0.5-1.4-1.3 0-0.7 0.6-1.3 1.3-1.3zm0.8-5.9c0.4 0.4 0.4 1 0 1.3l-6.7 6.7q-0.3 0.3-0.7 0.3-0.3 0-0.6-0.3c-0.4-0.4-0.4-1 0-1.3l6.6-6.7c0.4-0.4 1-0.4 1.4 0zm-7.3-0.6c0.8 0 1.3 0.6 1.3 1.3 0 0.8-0.5 1.3-1.3 1.3-0.7 0-1.3-0.5-1.3-1.3 0-0.7 0.6-1.3 1.3-1.3z"/></svg>