<svg version="1.2" xmlns="http://www.w3.org/2000/svg" viewBox="0 0 27 27" width="27" height="27"><style>.a{fill:#27014f}</style><path fill-rule="evenodd" class="a" d="m13.5 0c3.6 0 7 1.4 9.5 4 5.3 5.2 5.3 13.8 0 19.1-2.5 2.5-6 3.9-9.5 3.9-1.9 0-3.9-0.4-5.7-1.2-0.5-0.3-1-0.5-1.4-0.5-0.4 0-0.9 0.2-1.5 0.4-1.1 0.4-2.4 0.9-3.5-0.1-1-1-0.5-2.4-0.1-3.5 0.2-0.5 0.4-1.1 0.4-1.5 0-0.4-0.2-0.8-0.5-1.5-2.3-5-1.2-11.2 2.8-15.1 2.5-2.6 5.9-4 9.5-4zm0 1.9c-3.1 0-6 1.2-8.2 3.4-3.4 3.4-4.4 8.7-2.3 13.1 0.3 0.7 0.5 1.4 0.5 2.2 0 0.7-0.2 1.4-0.4 2.1-0.2 0.5-0.5 1.3-0.3 1.5 0.2 0.2 1-0.1 1.5-0.3 0.7-0.2 1.4-0.4 2.1-0.4 0.7 0 1.4 0.2 2.2 0.5 4.4 2.1 9.7 1.2 13.1-2.3 4.5-4.5 4.5-11.9 0-16.4-2.2-2.2-5.1-3.4-8.2-3.4zm5 10.9c0.7 0 1.2 0.5 1.2 1.2 0 0.7-0.5 1.3-1.2 1.3-0.7 0-1.3-0.6-1.3-1.3 0-0.7 0.6-1.2 1.2-1.2zm-5 0c0.7 0 1.3 0.5 1.3 1.2 0 0.7-0.6 1.3-1.3 1.3-0.7 0-1.2-0.6-1.2-1.3 0-0.7 0.5-1.2 1.2-1.2zm-5 0c0.7 0 1.2 0.5 1.2 1.2 0 0.7-0.5 1.3-1.2 1.3-0.7 0-1.3-0.6-1.3-1.3 0-0.7 0.6-1.2 1.3-1.2z"/></svg>