<svg version="1.2" xmlns="http://www.w3.org/2000/svg" viewBox="0 0 46 52" width="46" height="52"><style>.a{fill:#27014f}.b{fill:#d46cf5}</style><path class="a" d="m17.6 0h20c4.5 0 8 3.6 8 8v26.4c0 4.5-3.5 8-8 8h-20c-4.5 0-8-3.5-8-8v-26.4c0-4.4 3.5-8 8-8z"/><path class="b" d="m32.5 24.5q-1.4-0.1-3.8-0.1c-3.9 0-7-3.2-7-7v-6.9c0-0.5-0.5-0.9-1-0.9h-11.2c-5.3 0-9.5 4.3-9.5 9.5v22.9c0 5.5 4.4 10 9.9 10h16.7c5.2 0 9.5-4.3 9.5-9.5v-17.1c0-0.5-0.4-1-1-1-0.9 0-2 0.1-2.6 0.1z"/><path class="b" d="m26.7 10.8c-0.6-0.7-1.7-0.3-1.7 0.7v5.6c0 2.3 1.9 4.2 4.2 4.2 1.5 0.1 3.6 0.1 5.3 0.1 0.9 0 1.4-1.1 0.8-1.8-2.3-2.3-6.3-6.5-8.6-8.8z"/><path class="a" d="m23.2 36.9c0.8 0 1.6 0.7 1.6 1.6 0 0.9-0.8 1.6-1.6 1.6h-11.6c-0.9 0-1.6-0.7-1.6-1.6 0-0.9 0.7-1.6 1.6-1.6zm-4.4-10.6c0.9 0 1.6 0.7 1.6 1.6 0 0.9-0.7 1.6-1.6 1.6h-7.1c-0.9 0-1.6-0.7-1.6-1.6 0-0.9 0.7-1.6 1.6-1.6z"/></svg>