<svg version="1.2" xmlns="http://www.w3.org/2000/svg" viewBox="0 0 55 55" width="55" height="55"><style>.a{fill:#d46cf5}.b{fill:#27014f}</style><path class="a" d="m0 35.1c0 11 8.9 19.9 19.9 19.9 10.9 0 19.8-8.9 19.8-19.9 0-10.9-8.9-19.8-19.8-19.8-11 0-19.9 8.9-19.9 19.8z"/><path class="b" d="m19.2 8c-0.4 0.5 0 1.2 0.7 1.2 14.3 0 25.9 11.6 25.9 25.9 0 0.7 0.7 1.1 1.2 0.7 4.9-3.6 8-9.4 8-15.9 0-11-8.9-19.9-19.9-19.9-6.5 0-12.3 3.1-15.9 8z"/><path class="b" d="m21.3 41.7h-1.9v-1.7c-3.1-0.3-4.6-1.9-4.6-4.3v-0.1h2v0.3c0 1.5 0.9 2.2 3.7 2.2 2.4 0 3.3-0.5 3.3-1.7 0-1.1-0.7-1.5-2.3-1.8l-3.1-0.5c-2.1-0.4-3.6-1.4-3.6-3.5 0-1.7 1.3-3.4 4.6-3.6v-1.8h1.9v1.8c3 0.3 4.3 2 4.3 4.3v0.1h-2v-0.3c0-1.5-0.9-2.3-3.6-2.3-2.3 0-3.2 0.6-3.2 1.7 0 1.1 0.6 1.5 2.1 1.8l3.1 0.5q3.8 0.7 3.8 3.5c0 1.8-1.3 3.5-4.5 3.7z"/></svg>