<svg version="1.2" xmlns="http://www.w3.org/2000/svg" viewBox="0 0 23 23" width="23" height="23"><style>.a{fill:#d46cf5}</style><path fill-rule="evenodd" class="a" d="m5 0.9c1.2 0 2.1 0.9 3.1 2.1q0.4 0.4 0.9 0.9c1.6 1.5 1.1 2.8 0.8 3.9-0.4 1.1-0.8 2 1.3 4.1 2 2 3 1.6 4.1 1.3 1-0.4 2.3-0.9 3.8 0.7q0.5 0.5 0.9 0.9c1.2 1.1 2.1 1.9 2.1 3.1 0 1.1-0.6 2.1-2.1 3.6l-0.7-0.4 0.5 0.5c-0.3 0.4-1.2 1.3-3 1.3-2.7 0-6.2-2.1-10.4-6.3-4.2-4.2-6.3-7.7-6.3-10.4 0-1.8 0.9-2.7 1.3-3v-0.1h0.1c1.5-1.6 2.6-2.2 3.6-2.2zm0 1.6q-0.7 0-2.3 1.5l-0.2 0.2q0 0 0 0.1h-0.1c-0.2 0.3-0.8 0.8-0.8 1.9 0 1.5 1 4.4 5.9 9.3 4.8 4.8 7.7 5.8 9.2 5.8 1.1 0 1.6-0.5 1.9-0.8q0.1-0.1 0.2-0.2 1.6-1.6 1.6-2.4c0-0.5-0.7-1.1-1.6-2q-0.4-0.4-0.9-0.8c-0.8-0.9-1.3-0.8-2.2-0.4-1.3 0.4-3 1-5.8-1.7-2.7-2.7-2.1-4.5-1.6-5.8 0.3-0.9 0.4-1.3-0.4-2.2q-0.5-0.5-0.9-0.9c-0.9-0.9-1.5-1.6-2-1.6zm9.2 2.2c2.2 0.5 4 2.2 4.4 4.4 0.1 0.5-0.2 0.9-0.6 1q-0.1 0-0.2 0c-0.4 0-0.7-0.3-0.8-0.7-0.3-1.5-1.5-2.8-3.1-3.1-0.4-0.1-0.7-0.5-0.6-0.9 0.1-0.5 0.5-0.7 0.9-0.7zm0-3.8c4.3 0.5 7.7 3.9 8.2 8.3 0.1 0.4-0.3 0.8-0.7 0.9q0 0-0.1 0c-0.4 0-0.7-0.3-0.8-0.7-0.4-3.7-3.2-6.5-6.8-6.9-0.5 0-0.8-0.4-0.7-0.9 0-0.4 0.4-0.7 0.9-0.7z"/></svg>