<svg version="1.2" xmlns="http://www.w3.org/2000/svg" viewBox="0 0 52 53" width="52" height="53"><style>.a{opacity:.1;fill:#d46cf5}.b{fill:#d46cf5}.c{fill:#27014f}</style><path fill-rule="evenodd" class="a" d="m26 41.4c-8.4 0-15.2-6.8-15.2-15.2 0-8.4 6.8-15.3 15.2-15.3 8.4 0 15.2 6.9 15.2 15.3 0 8.4-6.8 15.2-15.2 15.2zm0-8.7c3.6 0 6.5-2.9 6.5-6.5 0-3.6-2.9-6.6-6.5-6.6-3.6 0-6.5 3-6.5 6.6 0 3.6 2.9 6.5 6.5 6.5z"/><path class="b" d="m22.4 46.1c2.2-2 5.6-1.8 7.6 0.4l2.2 2.5c0.7 0.7 1.6 1.1 2.5 1 1.8-0.1 3.1-1.6 3-3.3l-0.2-3.3q0-0.3 0-0.6c0.2-2.9 2.7-5.2 5.7-5.1l3.3 0.2c1 0 1.9-0.3 2.5-1 1.2-1.3 1.1-3.3-0.2-4.5l-2.5-2.2q-0.2-0.2-0.4-0.4c-2-2.2-1.8-5.6 0.4-7.6l2.5-2.3c0.7-0.6 1.1-1.5 1-2.5-0.1-1.7-1.5-3-3.3-2.9l-3.3 0.1q-0.3 0.1-0.5 0c-3-0.1-5.3-2.7-5.2-5.6l0.2-3.4c0.1-0.9-0.3-1.8-1-2.4-1.3-1.2-3.3-1.1-4.5 0.2l-2.2 2.4q-0.2 0.3-0.4 0.4c-2.2 2-5.6 1.9-7.6-0.4l-2.2-2.4c-0.7-0.7-1.6-1.1-2.5-1.1-1.8 0.1-3.1 1.6-3 3.3l0.2 3.4q0 0.2 0 0.5c-0.2 3-2.7 5.3-5.7 5.1l-3.3-0.1c-1-0.1-1.9 0.3-2.5 1-1.2 1.3-1.1 3.3 0.2 4.4l2.5 2.3q0.2 0.1 0.4 0.3c2 2.3 1.8 5.7-0.4 7.7l-2.5 2.2c-0.7 0.7-1.1 1.6-1 2.5 0.1 1.7 1.5 3.1 3.3 3l3.3-0.2q0.3 0 0.5 0c3 0.2 5.3 2.7 5.2 5.7l-0.2 3.3c-0.1 1 0.3 1.9 1 2.5 1.3 1.2 3.3 1.1 4.5-0.2l2.2-2.5q0.2-0.2 0.4-0.4z"/><path class="c" d="m26 37.6c-5.8 0-10.4-4.6-10.4-10.4 0-5.7 4.6-10.4 10.4-10.4 5.8 0 10.4 4.7 10.4 10.4 0 5.8-4.6 10.4-10.4 10.4z"/></svg>