<svg version="1.2" xmlns="http://www.w3.org/2000/svg" viewBox="0 0 41 39" width="41" height="39"><style>.a{fill:#27014f}.b{fill:#d46cf5}</style><path class="a" d="m22 1.2l4.4 9c0.4 0.6 1 1.1 1.7 1.2l10 1.4c0.6 0.1 1.1 0.4 1.5 0.9 0.4 0.5 0.5 1.1 0.4 1.6 0 0.5-0.3 1-0.6 1.3l-7.3 7c-0.5 0.5-0.7 1.3-0.6 2l1.8 9.9c0.2 1.2-0.6 2.3-1.8 2.5-0.5 0.1-1 0-1.4-0.2l-9-4.7c-0.6-0.3-1.4-0.3-2.1 0l-8.9 4.7c-1.1 0.6-2.5 0.2-3.1-0.9-0.2-0.4-0.3-0.9-0.2-1.4l1.8-9.9c0.1-0.7-0.1-1.4-0.7-1.9l-7.2-7.1c-0.9-0.8-0.9-2.2-0.1-3q0-0.1 0.1-0.1c0.3-0.3 0.8-0.6 1.3-0.6l10-1.5c0.7-0.1 1.3-0.5 1.6-1.2l4.3-9c0.4-0.7 1.2-1.2 2.1-1.2h0.2c0.8 0.1 1.4 0.6 1.8 1.2z"/><path class="b" d="m20 32.9q-0.6 0-1.1 0.3l-8.9 4.6c-1.1 0.5-2.4 0.1-3-0.9-0.2-0.4-0.3-0.9-0.2-1.4l1.8-9.9c0.1-0.7-0.2-1.4-0.7-1.9l-7.2-7c-0.9-0.9-0.9-2.3-0.1-3.1q0-0.1 0.1-0.1c0.3-0.3 0.7-0.5 1.2-0.6l10-1.5c0.8-0.1 1.4-0.5 1.7-1.2l4.4-9.1c0.4-0.7 1.2-1.1 2-1.1 0 0.6 0 32.5 0 32.9z"/></svg>