<svg version="1.2" xmlns="http://www.w3.org/2000/svg" viewBox="0 0 28 25" width="28" height="25"><style>.a{fill:none;stroke:#d46cf5;stroke-linecap:round;stroke-linejoin:round;stroke-width:2}.b{fill:#d46cf5}</style><path fill-rule="evenodd" class="a" d="m24.3 3.3q-1-0.9-2.2-1.4-1.2-0.5-2.5-0.5-1.3 0-2.6 0.5-1.2 0.5-2.1 1.4l-1.3 1.3-1.3-1.3c-1.2-1.2-2.9-1.9-4.7-1.9-1.7 0-3.4 0.7-4.7 1.9-1.2 1.3-1.9 3-1.9 4.7 0 1.8 0.7 3.5 1.9 4.7l1.3 1.3 9.4 9.4 9.4-9.4 1.3-1.3q0.9-0.9 1.4-2.1 0.5-1.3 0.5-2.6 0-1.3-0.5-2.5-0.5-1.2-1.4-2.2z"/><path class="b" d="m22.1 1.9q1.2 0.5 2.2 1.4 0.9 1 1.4 2.2 0.5 1.2 0.5 2.5 0 1.3-0.5 2.6-0.5 1.2-1.4 2.1l-1.3 1.3-9.4 9.4v-18.8l1.3-1.3q0.9-0.9 2.1-1.4 1.3-0.5 2.6-0.5 1.3 0 2.5 0.5z"/></svg>