<svg version="1.2" xmlns="http://www.w3.org/2000/svg" viewBox="0 0 24 16" width="24" height="16"><style>.a{fill:#27014f}</style><path fill-rule="evenodd" class="a" d="m12 0.3c6.5 0 11.6 6.9 11.8 7.2 0.3 0.3 0.3 0.7 0 1-0.2 0.3-5.3 7.2-11.8 7.2-6.5 0-11.6-6.9-11.8-7.2-0.3-0.3-0.3-0.7 0-1 0.2-0.3 5.3-7.2 11.8-7.2zm-10.2 7.7c1.2 1.5 5.4 6.1 10.2 6.1 4.8 0 9-4.6 10.2-6.1-1.2-1.5-5.4-6.1-10.2-6.1-4.8 0-9 4.6-10.2 6.1z"/><path fill-rule="evenodd" class="a" d="m6.9 7.6c0-2.6 2.1-4.7 4.7-4.7 2.6 0 4.7 2.1 4.7 4.7 0 2.6-2.1 4.7-4.7 4.7-2.6 0-4.7-2.1-4.7-4.7zm1.5 0c0 1.7 1.4 3.1 3.2 3.1 1.7 0 3.1-1.4 3.1-3.1 0-1.7-1.4-3.2-3.1-3.2-1.8 0-3.2 1.5-3.2 3.2z"/></svg>