<svg version="1.2" xmlns="http://www.w3.org/2000/svg" viewBox="0 0 72 59" width="72" height="59"><style>.a{fill:#27014f}.b{fill:none;stroke:#fff;stroke-width:3}.c{fill:#fff}.d{fill:#d46cf5}.e{fill:#e6a9f9}</style><path class="a" d="m23.8 48.6c-13.2 0-23.8-10.7-23.8-23.8 0-13.2 10.6-23.8 23.8-23.8 13.1 0 23.8 10.6 23.8 23.8 0 13.1-10.7 23.8-23.8 23.8z"/><path class="b" d="m23.8 1l-3.3 4c-9.8 11.9-9.7 29.1 0.3 41l2.2 2.6"/><path class="b" d="m23 48.6l3.3-4c9.8-11.9 9.7-29.2-0.3-41l-2.2-2.6"/><path class="b" d="m0 25.2h48"/><path class="c" d="m28.1 24.9h36c2.8 0 5 2.2 5 5v23.3c0 2.8-2.2 5-5 5h-36c-2.7 0-5-2.2-5-5v-23.3c0-2.8 2.3-5 5-5z"/><path class="d" d="m29.9 27.7h38c2.2 0 4 1.8 4 4v23.3c0 2.2-1.8 4-4 4h-38c-2.2 0-4-1.8-4-4v-23.3c0-2.2 1.8-4 4-4z"/><path class="e" d="m25.9 33.8h46v5.5h-46z"/><path class="e" d="m58 47.2h4c1.5 0 2.7 1.3 2.7 2.8 0 1.5-1.2 2.8-2.7 2.8h-4c-1.5 0-2.8-1.3-2.8-2.8 0-1.5 1.3-2.8 2.8-2.8z"/></svg>