<svg version="1.2" xmlns="http://www.w3.org/2000/svg" viewBox="0 0 28 24" width="28" height="24"><style>.a{fill:none;stroke:#d46cf5;stroke-linecap:round;stroke-linejoin:round;stroke-width:2}</style><path class="a" d="m19.8 22.5v-2.3c0-1.3-0.5-2.5-1.3-3.3-0.9-0.9-2.1-1.4-3.3-1.4h-9.4c-1.2 0-2.4 0.5-3.3 1.4-0.8 0.8-1.3 2-1.3 3.3v2.3"/><path fill-rule="evenodd" class="a" d="m10.5 10.8c2.6 0 4.7-2.1 4.7-4.6 0-2.6-2.1-4.7-4.7-4.7-2.6 0-4.7 2.1-4.7 4.7 0 2.5 2.1 4.6 4.7 4.6z"/><path class="a" d="m26.8 22.5v-2.3c0-1.1-0.3-2.1-0.9-2.9-0.7-0.8-1.6-1.4-2.6-1.6"/><path class="a" d="m18.7 1.7c1 0.2 1.9 0.8 2.5 1.6 0.6 0.8 1 1.8 1 2.9 0 1-0.4 2-1 2.8-0.6 0.9-1.5 1.4-2.5 1.7"/></svg>