<svg version="1.2" xmlns="http://www.w3.org/2000/svg" viewBox="0 0 62 51" width="62" height="51"><style>.a{fill:#27014f}.b{fill:none;stroke:#fff;stroke-width:3}.c{fill:#fff}.d{fill:#d46cf5}.e{fill:#e6acf9}</style><path class="a" d="m20.5 42c-11.3 0-20.5-9.2-20.5-20.5 0-11.3 9.2-20.5 20.5-20.5 11.3 0 20.5 9.2 20.5 20.5 0 11.3-9.2 20.5-20.5 20.5z"/><path class="b" d="m20.5 1l-0.9 1.1c-9.6 11.7-9.5 28.4 0.2 39.9"/><path class="b" d="m19.8 42l1-1.1c9.5-11.7 9.4-28.4-0.3-39.9"/><path class="b" d="m0 21.8h41.3"/><path class="c" d="m24.9 21.6h29.7c2.7 0 5 2.3 5 5v18.7c0 2.8-2.3 5-5 5h-29.7c-2.7 0-5-2.2-5-5v-18.7c0-2.7 2.3-5 5-5z"/><path class="d" d="m26.3 24h31.7c2.2 0 4 1.8 4 4v19c0 2.2-1.8 4-4 4h-31.7c-2.2 0-4-1.8-4-4v-19c0-2.2 1.8-4 4-4z"/><path class="e" d="m22.3 29.2h39.7v4.8h-39.7z"/><path class="e" d="m50 40.9h3.4c1.3 0 2.4 1 2.4 2.4 0 1.3-1.1 2.3-2.4 2.3h-3.4c-1.3 0-2.4-1-2.4-2.3 0-1.4 1.1-2.4 2.4-2.4z"/></svg>