<svg version="1.2" xmlns="http://www.w3.org/2000/svg" viewBox="0 0 28 28" width="28" height="28"><style>.a{fill:#27014f}</style><path fill-rule="evenodd" class="a" d="m17 1.2l1 1c0.4 0.4 0.9 0.7 1.5 0.7h1.4c2.3 0 4.2 1.9 4.2 4.2v1.4c0 0.6 0.3 1.1 0.7 1.5l1 1c0.8 0.8 1.2 1.9 1.2 3 0 1.1-0.4 2.2-1.2 3l-1.1 1c-0.3 0.4-0.6 0.9-0.6 1.5v1.4c0 2.3-1.9 4.2-4.2 4.2h-1.4c-0.6 0-1.1 0.3-1.5 0.7l-1 1c-0.8 0.8-1.9 1.2-3 1.2-1.1 0-2.2-0.4-3-1.2q0 0 0-0.1l-1-0.9c-0.4-0.4-0.9-0.7-1.5-0.7h-1.4c-2.3 0-4.2-1.9-4.2-4.2v-1.4c0-0.6-0.3-1.1-0.7-1.5l-1-1c-1.6-1.6-1.6-4.3 0-5.9v-0.1l1-1c0.4-0.4 0.7-0.9 0.7-1.5v-1.4c0-2.3 1.9-4.2 4.2-4.2h1.4c0.6 0 1.1-0.3 1.5-0.7l1-1c1.6-1.6 4.3-1.6 6 0zm-4.5 1.5l-1 1c-0.8 0.8-1.9 1.3-3 1.3h-1.4c-1.2 0-2.1 0.9-2.1 2.1v1.4c0 1.1-0.5 2.2-1.3 3l-1 1q0 0 0 0c-0.8 0.8-0.8 2.2 0 3l1 1c0.8 0.8 1.3 1.9 1.3 3v1.4c0 1.2 0.9 2.1 2.1 2.1h1.4c1.1 0 2.2 0.5 3 1.3l1 1c0.8 0.8 2.2 0.8 3 0l1-1c0.8-0.8 1.9-1.3 3-1.3h1.4c1.2 0 2.1-0.9 2.1-2.1v-1.4c0-1.1 0.5-2.2 1.3-3l1-1c0.4-0.4 0.6-0.9 0.6-1.5 0-0.6-0.2-1.1-0.6-1.5l-1-1c-0.8-0.8-1.3-1.9-1.3-3v-1.4c0-1.2-0.9-2.1-2.1-2.1h-1.4c-1.1 0-2.2-0.5-3-1.3l-1-1c-0.8-0.8-2.2-0.8-3 0zm5 13.4c0.8 0 1.4 0.6 1.4 1.4 0 0.8-0.6 1.4-1.4 1.4-0.8 0-1.4-0.6-1.4-1.4 0-0.8 0.6-1.4 1.4-1.4zm0.8-6.4c0.4 0.4 0.4 1 0 1.4l-7.2 7.2c-0.2 0.2-0.4 0.3-0.7 0.3-0.3 0-0.5-0.1-0.8-0.3-0.4-0.4-0.4-1 0-1.4l7.2-7.2c0.5-0.5 1.1-0.5 1.5 0zm-7.8-0.6c0.8 0 1.4 0.6 1.4 1.4 0 0.8-0.6 1.4-1.4 1.4-0.8 0-1.4-0.6-1.4-1.4 0-0.8 0.6-1.4 1.4-1.4z"/></svg>