<svg version="1.2" xmlns="http://www.w3.org/2000/svg" viewBox="0 0 18 15" width="18" height="15"><style>.a{opacity:.4;fill:#27014f}</style><path fill-rule="evenodd" class="a" d="m12.7 0c2.7 0 4.8 2.1 4.8 4.9v5.2c0 1.5-0.6 2.7-1.5 3.7-0.9 0.8-2 1.2-3.3 1.2h-8c-1.2 0-2.3-0.4-3.2-1.2-1-1-1.5-2.2-1.5-3.7v-5.2c0-2.8 2-4.9 4.7-4.9zm0 1.2h-7.9c-2.1 0-3.6 1.5-3.6 3.7v5.2c0 1.2 0.4 2.1 1.2 2.8 0.6 0.6 1.4 0.9 2.4 0.9h7.9q0.1 0 0.1 0c0.9 0 1.7-0.3 2.3-0.9 0.8-0.7 1.2-1.6 1.2-2.8v-5.2c0-2.2-1.5-3.7-3.6-3.7zm1.3 3.5c0.2 0.3 0.2 0.6-0.1 0.8l-3.6 2.8c-0.4 0.3-1 0.5-1.5 0.5-0.6 0-1.1-0.2-1.6-0.5l-3.6-2.8c-0.3-0.2-0.3-0.5-0.1-0.8 0.2-0.2 0.6-0.3 0.9-0.1l3.6 2.8c0.5 0.4 1.1 0.4 1.6 0l3.6-2.8c0.2-0.2 0.6-0.1 0.8 0.1z"/></svg>