<svg version="1.2" xmlns="http://www.w3.org/2000/svg" viewBox="0 0 25 25" width="25" height="25"><style>.a{fill:#27014f}</style><path fill-rule="evenodd" class="a" d="m12.5 0c3.3 0 6.5 1.3 8.8 3.7 4.9 4.8 4.9 12.8 0 17.6-2.3 2.4-5.6 3.7-8.8 3.7-1.8 0-3.6-0.4-5.3-1.2-0.5-0.1-0.9-0.3-1.3-0.3-0.3 0-0.8 0.1-1.3 0.3-1.1 0.4-2.3 0.8-3.3-0.1-0.9-1-0.5-2.2-0.1-3.2 0.2-0.5 0.3-1.1 0.3-1.5 0-0.3-0.1-0.7-0.4-1.3-2.1-4.7-1.1-10.3 2.6-14 2.3-2.4 5.5-3.7 8.8-3.7zm0 1.7c-2.9 0-5.6 1.2-7.6 3.2-3.2 3.2-4.1 8.1-2.2 12.1 0.3 0.7 0.6 1.4 0.6 2 0 0.7-0.3 1.4-0.5 2-0.1 0.5-0.4 1.3-0.2 1.4 0.1 0.2 0.9-0.1 1.4-0.2 0.6-0.2 1.3-0.5 1.9-0.5 0.7 0 1.4 0.3 2 0.5 4.2 2 9 1.1 12.2-2.1 4.2-4.2 4.2-11 0-15.2-2-2-4.7-3.2-7.6-3.2zm4.6 10.1c0.6 0 1.2 0.5 1.2 1.2 0 0.6-0.6 1.1-1.2 1.1-0.6 0-1.2-0.5-1.2-1.1 0-0.7 0.5-1.2 1.2-1.2zm-4.7 0c0.7 0 1.2 0.5 1.2 1.2 0 0.6-0.5 1.1-1.2 1.1-0.6 0-1.1-0.5-1.1-1.1 0-0.7 0.5-1.2 1.1-1.2zm-4.7 0c0.7 0 1.2 0.5 1.2 1.2 0 0.6-0.5 1.1-1.2 1.1-0.6 0-1.1-0.5-1.1-1.1 0-0.7 0.5-1.2 1.1-1.2z"/></svg>