<svg version="1.2" xmlns="http://www.w3.org/2000/svg" viewBox="0 0 24 22" width="24" height="22"><style>.a{opacity:.4;fill:#27014f}.b{fill:#27014f}</style><path class="a" d="m12.7 0.7l2.6 5.2c0.2 0.4 0.5 0.6 1 0.7l5.7 0.8c0.4 0.1 0.7 0.3 0.9 0.5 0.2 0.3 0.3 0.6 0.2 1q0 0.4-0.3 0.7l-4.2 4.1c-0.3 0.3-0.5 0.7-0.4 1.1l1 5.7c0.1 0.7-0.3 1.3-1 1.5q-0.4 0-0.8-0.2l-5.2-2.6c-0.4-0.2-0.8-0.2-1.2 0l-5.2 2.6c-0.6 0.4-1.4 0.2-1.7-0.5q-0.2-0.4-0.2-0.8l1.1-5.7c0-0.4-0.1-0.8-0.4-1.1l-4.2-4.1c-0.5-0.5-0.5-1.3 0-1.8q0 0 0 0 0.3-0.3 0.7-0.4l5.8-0.8c0.4-0.1 0.8-0.3 1-0.7l2.5-5.2c0.2-0.4 0.7-0.7 1.2-0.7h0.1c0.4 0.1 0.8 0.3 1 0.7z"/><path class="b" d="m11.6 19q-0.4 0-0.7 0.2l-5.1 2.7c-0.6 0.3-1.4 0-1.7-0.6q-0.2-0.3-0.2-0.8l1-5.7c0.1-0.4 0-0.8-0.3-1.1l-4.2-4.1c-0.5-0.5-0.5-1.3 0-1.8q0 0 0 0 0.3-0.3 0.7-0.3l5.8-0.9c0.4 0 0.8-0.3 1-0.7l2.5-5.2c0.2-0.5 0.7-0.7 1.2-0.7 0 0.3 0 18.8 0 19z"/></svg>