<svg version="1.2" xmlns="http://www.w3.org/2000/svg" viewBox="0 0 33 35" width="33" height="35"><style>.a{fill:#27014f}.b{opacity:.4;fill:#27014f}</style><path class="a" d="m29 5.9l-10-4.4c-1.4-0.7-3.7-0.7-5.1 0l-10 4.4c-2.5 1.1-2.9 2.7-2.9 3.5 0 0.8 0.4 2.3 2.9 3.4l10 4.5c0.7 0.3 1.6 0.5 2.6 0.5 0.9 0 1.8-0.2 2.5-0.5l10-4.5c2.5-1.1 2.9-2.6 2.9-3.4 0-0.8-0.4-2.4-2.9-3.5z"/><path class="b" d="m16.5 26.6q-1 0-1.9-0.4l-11.5-5.1c-1.7-0.8-3.1-2.9-3.1-4.8 0-0.7 0.6-1.3 1.3-1.3 0.7 0 1.2 0.6 1.2 1.3 0 0.9 0.8 2.1 1.6 2.5l11.5 5.1c0.5 0.2 1.2 0.2 1.7 0l11.5-5.1c0.8-0.4 1.6-1.6 1.6-2.5 0-0.7 0.5-1.3 1.2-1.3 0.7 0 1.3 0.6 1.3 1.3 0 1.9-1.4 4-3.1 4.8l-11.5 5.1c-0.6 0.2-1.2 0.4-1.8 0.4z"/><path class="b" d="m16.5 35q-1 0-1.9-0.4l-11.5-5.1c-1.9-0.8-3.1-2.7-3.1-4.8 0-0.7 0.6-1.3 1.3-1.3 0.7 0 1.2 0.6 1.2 1.3 0 1.1 0.6 2 1.6 2.5l11.5 5.1c0.5 0.2 1.2 0.2 1.7 0l11.5-5.1c0.9-0.4 1.6-1.4 1.6-2.5 0-0.7 0.5-1.3 1.2-1.3 0.7 0 1.3 0.6 1.3 1.3 0 2.1-1.2 3.9-3.1 4.8l-11.5 5.1c-0.6 0.3-1.2 0.4-1.8 0.4z"/></svg>