<svg version="1.2" xmlns="http://www.w3.org/2000/svg" viewBox="0 0 54 48" width="54" height="48"><style>.a{fill:#d46cf5}.b{fill:#27014f}</style><path class="a" d="m19.6 31.6c-10.6 0-19.6 1.7-19.6 8.2 0 6.5 9 8.2 19.6 8.2 10.6 0 19.6-1.6 19.6-8.2 0-6.5-9-8.2-19.6-8.2z"/><path class="a" d="m19.6 25.4c7.2 0 13-5.7 13-12.7 0-7.1-5.8-12.7-13-12.7-7.2 0-13 5.6-13 12.7 0 7 5.8 12.7 13 12.7z"/><path class="b" d="m37.8 12.9c0 3.6-1.1 7-3 9.8-0.2 0.2-0.1 0.6 0.3 0.7q0.7 0.1 1.5 0.1c5 0.2 9.6-3 10.8-7.8 1.9-7.2-3.6-13.6-10.5-13.6q-1.1 0-2.2 0.2-0.2 0.1-0.2 0.2c-0.1 0.1-0.1 0.2 0 0.3 2.1 2.9 3.3 6.4 3.3 10.1z"/><path class="b" d="m52.7 32.5c-0.9-2-3.1-3.3-6.5-4-1.6-0.3-6-0.9-10-0.8q-0.1 0-0.1 0.1 0 0 0.1 0.1c1.8 0.9 9.1 4.8 8.2 13.1-0.1 0.4 0.2 0.7 0.6 0.7 1.8-0.3 6.3-1.2 7.7-4.2 0.8-1.6 0.8-3.5 0-5z"/></svg>