<svg version="1.2" xmlns="http://www.w3.org/2000/svg" viewBox="0 0 74 65" width="74" height="65"><style>.a{fill:#27014f}.b{fill:#fff}.c{fill:#d46cf5}.d{fill:#e6a9f9}.e{opacity:.1;fill:none;stroke:#000;stroke-width:3}</style><path class="a" d="m7.5 9.7l18.7-6.9c4.2-1.6 8.8 0.6 10.3 4.7l11.7 31.6c1.6 4.2-0.5 8.8-4.7 10.3l-18.7 7c-4.1 1.5-8.7-0.6-10.3-4.8l-11.7-31.6c-1.6-4.1 0.6-8.7 4.7-10.3z"/><path class="b" d="m44.1 3.7l17.3 4.6c4.8 1.3 7.7 6.2 6.4 11l-9.9 37c-1.3 4.8-6.2 7.7-11 6.4l-17.4-4.7c-4.8-1.3-7.7-6.2-6.4-11l9.9-37c1.3-4.8 6.2-7.6 11.1-6.3z"/><path class="c" d="m46.6 8l19.3 5.2c4.3 1.1 6.8 5.5 5.7 9.8l-8.3 30.9c-1.2 4.3-5.5 6.8-9.8 5.6l-19.3-5.1c-4.3-1.2-6.8-5.6-5.7-9.8l8.3-30.9c1.2-4.3 5.5-6.8 9.8-5.7z"/><path class="c" d="m46.6 8l19.3 5.2c4.3 1.1 6.8 5.5 5.7 9.8l-8.3 30.9c-1.2 4.3-5.5 6.8-9.8 5.6l-19.3-5.1c-4.3-1.2-6.8-5.6-5.7-9.8l8.3-30.9c1.2-4.3 5.5-6.8 9.8-5.7z"/><path class="d" d="m40.9 19.8l1.4-5.7c0.3-1.1 1.4-1.7 2.5-1.4l2.4 0.6c1 0.3 1.7 1.4 1.4 2.4l-1.4 5.7c-0.3 1.1-1.4 1.7-2.5 1.5l-2.4-0.7c-1.1-0.2-1.7-1.3-1.4-2.4z"/><path class="e" d="m46.9 56.8l13.7-45"/></svg>