<svg version="1.2" xmlns="http://www.w3.org/2000/svg" viewBox="0 0 58 58" width="58" height="58"><style>.a{fill:#d46cf5}.b{fill:#27014f}</style><path class="a" d="m0 37.1c0 11.5 9.4 20.9 20.9 20.9 11.6 0 21-9.4 21-20.9 0-11.6-9.4-21-21-21-11.5 0-20.9 9.4-20.9 21z"/><path class="b" d="m20.3 8.4c-0.4 0.5 0 1.3 0.6 1.3 15.2 0 27.4 12.2 27.4 27.4 0 0.6 0.8 1 1.3 0.6 5.1-3.8 8.4-9.9 8.4-16.8 0-11.5-9.4-20.9-20.9-20.9-6.9 0-13 3.3-16.8 8.4z"/><path class="b" d="m22.5 44h-2v-1.9c-3.3-0.3-4.9-1.9-4.9-4.5v-0.1h2.1v0.3c0 1.6 1 2.4 3.9 2.4 2.6 0 3.5-0.5 3.5-1.8 0-1.2-0.7-1.6-2.4-1.9l-3.3-0.6c-2.2-0.4-3.8-1.4-3.8-3.6 0-1.8 1.3-3.6 4.9-3.9v-1.8h2v1.9c3.1 0.3 4.5 2.1 4.5 4.5v0.1h-2.1v-0.3c0-1.6-1-2.4-3.8-2.4-2.4 0-3.4 0.6-3.4 1.8 0 1.1 0.7 1.5 2.3 1.9l3.2 0.5q4.1 0.7 4 3.7c0 1.9-1.4 3.6-4.7 3.9z"/></svg>