<svg version="1.2" xmlns="http://www.w3.org/2000/svg" viewBox="0 0 20 19" width="20" height="19"><style>.a{fill:#d46cf5}</style><path fill-rule="evenodd" class="a" d="m14.6 0c3.1 0 5.4 2.5 5.4 5.9v6.4c0 1.7-0.6 3.2-1.7 4.3-1 1-2.3 1.5-3.7 1.5h-9.2c-1.4 0-2.7-0.5-3.7-1.5-1.1-1.1-1.7-2.6-1.7-4.3v-6.4c0-3.4 2.3-5.9 5.4-5.9zm0 1.4h-9.1c-2.3 0-4 1.9-4 4.5v6.4c0 1.3 0.4 2.5 1.3 3.3 0.7 0.8 1.6 1.1 2.7 1.1h9.1q0 0 0 0c1.1 0 2.1-0.3 2.8-1.1 0.8-0.8 1.3-2 1.3-3.3v-6.4c0-2.6-1.7-4.5-4.1-4.5zm1.5 4.3c0.2 0.3 0.2 0.7-0.1 1l-4.1 3.3c-0.6 0.5-1.2 0.7-1.8 0.7-0.6 0-1.3-0.2-1.8-0.7l-4.1-3.3c-0.3-0.3-0.4-0.7-0.1-1 0.2-0.3 0.6-0.3 0.9-0.1l4.2 3.4c0.5 0.4 1.3 0.4 1.8 0l4.1-3.4c0.3-0.2 0.8-0.2 1 0.1z"/></svg>