<svg version="1.2" xmlns="http://www.w3.org/2000/svg" viewBox="0 0 37 37" width="37" height="37"><style>.a{fill:#27014f}.b{fill:#d46cf5}</style><path class="a" d="m14.8 6.6q0.2 0.2 0.2 0.5l0.5 7.5 0.3 3.7q0 0.6 0.2 1.2c0.3 0.7 1 1.1 1.8 1.1l11.9-0.8c0.6 0 1.1 0.2 1.4 0.6 0.3 0.3 0.5 0.6 0.6 1.1v0.2c-0.5 6.9-5.5 12.6-12.4 14.1-6.8 1.5-13.8-1.7-17.2-7.7-1-1.7-1.6-3.7-1.8-5.6q-0.1-0.9-0.1-1.8c0-7.4 5.2-13.7 12.5-15.3 0.9-0.1 1.8 0.3 2.1 1.2z"/><path class="b" d="m19.7 0.2c8.2 0.2 15.1 6.1 16.5 14v0.1l-0.1 0.1v0.2q0 0.5-0.3 0.8-0.4 0.4-0.9 0.5l-0.2 0.1-13.8 0.9c-0.4 0-0.9-0.1-1.2-0.5-0.3-0.2-0.5-0.6-0.6-0.9l-0.9-13.8q0-0.1 0-0.2c0-0.4 0.2-0.7 0.5-1 0.3-0.2 0.6-0.4 1-0.3z"/></svg>