<svg width="330" height="89" viewBox="0 0 330 89" fill="none" xmlns="http://www.w3.org/2000/svg">
<path fill-rule="evenodd" clip-rule="evenodd" d="M12.3017 52.688L32.9497 64.08V38.804L87.449 5.36498C88.434 7.01307 89 8.94043 89 11V78C89 84.0751 84.0751 89 78 89H53.5976V50.908L32.9496 64.436V89H11C4.92487 89 0 84.0751 0 78V11C0 4.92487 4.92487 0 11 0H56.87L12.3017 27.412V52.688Z" fill="url(#paint0_linear_72_72)"/>
<path d="M197.513 12.1957H179.947L184.868 26.9583C185.208 27.9766 186.161 28.6635 187.234 28.6635C188.155 28.6635 189.001 28.1559 189.434 27.3433L197.513 12.1957Z" fill="white"/>
<path d="M173.36 12.1957H153.599L172.038 70.4229C173.479 74.9739 177.702 78.0667 182.476 78.0667C186.352 78.0667 189.938 76.0178 191.907 72.6795L213.981 35.2505L224.959 53.914H261.188L272.167 12.1957H254.601L242.525 51.7183L222.387 15.2788C220.587 12.0218 217.16 10 213.439 10C209.71 10 206.277 12.0298 204.48 15.2968L183.241 53.914L173.36 12.1957Z" fill="white"/>
<path d="M114.076 12.1957L102 28.6635H131.642L147.012 76.9688H165.675L147.012 12.1957H114.076Z" fill="white"/>
<path d="M299.613 11.0979H279.852V55.5011C279.852 58.2625 277.613 60.5011 274.852 60.5011H207.394L197.513 76.9688H290.613C295.584 76.9688 299.613 72.9394 299.613 67.9688V11.0979Z" fill="white"/>
<path d="M305.313 11L330 11V16.9398H320.092V26.6236H330V32.5514H305.313V26.6236H315.234V16.9398H305.313V11Z" fill="white"/>
<path d="M330 49.4554V55.3832H314.077C312.236 55.3832 310.633 54.9472 309.267 54.0752C307.909 53.2033 306.856 51.9873 306.109 50.4273C305.37 48.8674 305 47.0554 305 44.9915C305 42.9035 305.37 41.0796 306.109 39.5196C306.856 37.9597 307.909 36.7477 309.267 35.8837C310.633 35.0197 312.236 34.5878 314.077 34.5878H330V40.5276H314.595C313.743 40.5276 312.984 40.7116 312.317 41.0796C311.65 41.4556 311.127 41.9796 310.75 42.6515C310.372 43.3235 310.183 44.1035 310.183 44.9915C310.183 45.8794 310.372 46.6554 310.75 47.3194C311.127 47.9914 311.65 48.5154 312.317 48.8914C312.984 49.2674 313.743 49.4554 314.595 49.4554H330Z" fill="white"/>
<path d="M305.313 57.4165H330V67.6642C330 69.5042 329.739 71.0442 329.216 72.2841C328.694 73.5321 327.963 74.4681 327.023 75.092C326.082 75.724 324.994 76.04 323.756 76.04C322.816 76.04 321.976 75.844 321.237 75.452C320.505 75.0601 319.899 74.5201 319.417 73.8321C318.934 73.1441 318.597 72.3481 318.404 71.4442H318.163C318.115 72.4361 317.846 73.3521 317.355 74.1921C316.865 75.0401 316.182 75.72 315.306 76.232C314.438 76.744 313.41 77 312.22 77C310.894 77 309.709 76.664 308.664 75.992C307.628 75.32 306.808 74.3481 306.205 73.0761C305.611 71.8041 305.313 70.2602 305.313 68.4442V57.4165ZM310.123 63.3564V67.0283C310.123 68.3162 310.368 69.2642 310.858 69.8722C311.348 70.4882 312.031 70.7962 312.907 70.7962C313.542 70.7962 314.089 70.6482 314.547 70.3522C315.013 70.0562 315.37 69.6362 315.62 69.0922C315.877 68.5482 316.005 67.8962 316.005 67.1363V63.3564H310.123ZM319.851 63.3564V66.6443C319.851 67.2923 319.959 67.8682 320.176 68.3722C320.393 68.8762 320.706 69.2682 321.116 69.5482C321.526 69.8362 322.02 69.9802 322.599 69.9802C323.427 69.9802 324.077 69.6882 324.552 69.1042C325.026 68.5202 325.263 67.7323 325.263 66.7403V63.3564H319.851Z" fill="white"/>
<defs>
<linearGradient id="paint0_linear_72_72" x1="44.5" y1="0" x2="44.5" y2="89" gradientUnits="userSpaceOnUse">
<stop stop-color="#D671F7"/>
<stop offset="1" stop-color="#9605C5"/>
</linearGradient>
</defs>
</svg>
